<svg width="375" height="174" viewBox="0 0 375 174" fill="none" xmlns="http://www.w3.org/2000/svg">
<g clip-path="url(#clip0_1575_5258)">
<g style="mix-blend-mode:color-burn">
<rect x="187.881" y="36.8047" width="50.4482" height="50.4482" stroke="#858585"/>
<rect x="238.186" y="36.8047" width="50.4482" height="50.4482" stroke="#858585"/>
<rect x="187.881" y="-13.5" width="50.4482" height="50.4482" stroke="#858585"/>
<rect x="238.186" y="-13.5" width="50.4482" height="50.4482" stroke="#858585"/>
<rect x="288.49" y="36.8047" width="49.3049" height="50.4482" stroke="#858585"/>
<rect x="337.652" y="36.8047" width="50.4482" height="50.4482" stroke="#858585"/>
<rect x="288.49" y="-13.5" width="49.3049" height="50.4482" stroke="#858585"/>
<rect x="337.652" y="-13.5" width="50.4482" height="50.4482" stroke="#858585"/>
<rect x="187.881" y="136.271" width="50.4482" height="50.4482" stroke="#858585"/>
<rect x="238.186" y="136.271" width="50.4482" height="50.4482" stroke="#858585"/>
<rect x="187.881" y="87.1099" width="50.4482" height="49.3049" stroke="#858585"/>
<rect x="238.186" y="87.1099" width="50.4482" height="49.3049" stroke="#858585"/>
<rect x="288.49" y="136.271" width="49.3049" height="50.4482" stroke="#858585"/>
<rect x="337.652" y="136.271" width="50.4482" height="50.4482" stroke="#858585"/>
<rect x="288.49" y="87.1099" width="49.3049" height="49.3049" stroke="#858585"/>
<rect x="337.652" y="87.1099" width="50.4482" height="49.3049" stroke="#858585"/>
<rect x="-12.1953" y="36.8047" width="50.4482" height="50.4482" stroke="#858585"/>
<rect x="-12.1953" y="-13.5" width="50.4482" height="50.4482" stroke="#858585"/>
<rect x="38.1094" y="36.8047" width="49.3049" height="50.4482" stroke="#858585"/>
<rect x="87.2705" y="36.8047" width="50.4482" height="50.4482" stroke="#858585"/>
<rect x="38.1094" y="-13.5" width="49.3049" height="50.4482" stroke="#858585"/>
<rect x="87.2705" y="-13.5" width="50.4482" height="50.4482" stroke="#858585"/>
<rect x="-12.1953" y="136.271" width="50.4482" height="50.4482" stroke="#858585"/>
<rect x="-12.1953" y="87.1099" width="50.4482" height="49.3049" stroke="#858585"/>
<rect x="38.1094" y="136.271" width="49.3049" height="50.4482" stroke="#858585"/>
<rect x="87.2705" y="136.271" width="50.4482" height="50.4482" stroke="#858585"/>
<rect x="38.1094" y="87.1099" width="49.3049" height="49.3049" stroke="#858585"/>
<rect x="87.2705" y="87.1099" width="50.4482" height="49.3049" stroke="#858585"/>
<rect x="137.576" y="36.8047" width="50.4482" height="50.4482" stroke="#858585"/>
<rect x="137.576" y="-13.5" width="50.4482" height="50.4482" stroke="#858585"/>
<rect x="137.576" y="136.271" width="50.4482" height="50.4482" stroke="#858585"/>
<rect x="137.576" y="87.1099" width="50.4482" height="49.3049" stroke="#858585"/>
</g>
</g>
<defs>
<clipPath id="clip0_1575_5258">
<rect width="375" height="173.78" fill="white"/>
</clipPath>
</defs>
</svg>
