<svg width="288" height="288" viewBox="0 0 288 288" fill="none" xmlns="http://www.w3.org/2000/svg">
<path d="M159.653 207.26C136.598 217.973 115.171 217.858 100.771 216.821C83.6064 215.583 69.7824 210.888 63.72 206.77C59.976 204.236 54.8928 205.215 52.3584 208.959C49.824 212.703 50.8032 217.786 54.5472 220.32C64.3104 226.93 81.5616 231.84 99.5904 233.136C102.643 233.367 105.998 233.496 109.613 233.496C125.309 233.496 145.238 231.999 166.55 222.092C170.64 220.176 172.426 215.324 170.51 211.22C168.61 207.13 163.742 205.344 159.653 207.26ZM250.574 195.135C251.352 124.057 258.667 -10.2371 122.616 0.620487C-11.7072 11.4348 23.904 153.332 21.9024 200.852C20.1312 225.994 11.7936 256.723 0 288H36.3024C40.0464 274.752 42.7824 261.634 43.9632 249.149C46.152 250.675 48.4992 252.144 51.0048 253.555C55.0656 255.96 58.5648 259.143 62.2656 262.512C70.9056 270.389 80.712 279.331 99.864 280.44C101.146 280.512 102.442 280.555 103.709 280.555C123.091 280.555 136.339 272.074 146.995 265.263C152.093 261.994 156.499 259.171 160.646 257.818C172.44 254.131 182.736 248.17 190.426 240.595C191.635 239.415 192.744 238.191 193.795 236.952C198.086 252.663 203.962 270.36 210.47 288H288C269.366 259.258 250.171 231.077 250.574 195.135ZM34.9056 156.471V156.457C33.5664 133.258 44.6688 113.761 59.688 112.882C74.7072 112.004 87.9696 130.105 89.3088 153.289C89.3088 153.303 89.3088 153.303 89.3088 153.303C89.3808 154.556 89.4096 155.794 89.4096 157.018C84.6576 158.213 80.352 159.956 76.5072 161.986C76.4928 161.813 76.4784 161.641 76.464 161.468V161.453C75.1824 148.292 68.1552 138.356 60.7536 139.249C53.3664 140.156 48.4128 151.561 49.7088 164.722C50.2704 170.468 51.912 175.594 54.216 179.482C53.64 179.929 52.0272 181.109 50.1696 182.477C48.7728 183.5 47.0592 184.738 45.0144 186.25C39.4272 178.906 35.5968 168.365 34.9056 156.471ZM187.099 213.797C186.566 226.051 170.525 237.586 155.722 242.208L155.635 242.237C149.472 244.239 143.986 247.752 138.168 251.467C128.405 257.717 118.296 264.183 103.709 264.183C102.744 264.183 101.765 264.154 100.8 264.096C87.4368 263.319 81.1872 257.631 73.2816 250.416C69.1056 246.615 64.7856 242.669 59.2272 239.415L59.0976 239.343C47.088 232.56 39.6288 224.136 39.1536 216.778C38.9232 213.135 40.5504 209.967 43.992 207.389C51.48 201.773 56.5056 198.101 59.8176 195.668C63.504 192.975 64.6272 192.168 65.448 191.376C66.0384 190.829 66.672 190.21 67.3632 189.533C74.232 182.852 85.7376 171.663 103.406 171.663C114.206 171.663 126.158 175.825 138.888 184.004C144.878 187.906 150.106 189.706 156.715 191.996C161.251 193.565 166.406 195.336 173.304 198.288L173.419 198.346C179.842 200.981 187.445 205.805 187.099 213.783V213.797ZM183.557 184.997C182.318 184.378 181.022 183.788 179.683 183.226C173.462 180.576 168.48 178.762 164.347 177.322C166.637 172.858 168.048 167.285 168.178 161.223C168.494 146.492 161.064 134.525 151.589 134.511C142.099 134.482 134.165 146.405 133.848 161.137C133.834 161.626 133.834 162.101 133.848 162.577C128.002 159.898 122.256 157.94 116.64 156.745C116.611 156.183 116.582 155.636 116.568 155.074V155.06C116.021 128.233 132.494 106.014 153.346 105.452C174.197 104.89 191.549 126.174 192.096 153.015V153.029C192.341 165.169 189.101 176.329 183.557 184.997Z" fill="black"/>
</svg>
