<svg width="175" height="143" viewBox="0 0 175 143" fill="none" xmlns="http://www.w3.org/2000/svg">
<path fill-rule="evenodd" clip-rule="evenodd" d="M58.6279 8.50342C63.5741 1.80392 72.1643 -1.11416 80.1678 1.18628L108.18 9.23764C111.12 10.0829 113.827 11.5937 116.09 13.6533L134.423 30.3401C135.735 31.5341 137.2 32.5476 138.78 33.3538L159.824 44.0909C165.265 46.8673 169.133 51.9857 170.317 57.9784L174.124 77.2307C175.596 84.6768 172.711 92.3127 166.683 96.9251L148.71 110.677C142.481 115.443 134.037 116.113 127.134 112.389L98.1062 96.7277C96.736 95.9884 95.0278 96.4245 94.1796 97.7301L70.6624 133.932C65.2781 142.22 54.6331 145.31 45.6475 141.194L14.1989 126.786C8.24811 124.06 4.01525 118.586 2.87439 112.14L0.351015 97.8846C-0.601369 92.5041 0.697013 86.9686 3.94249 82.5727L58.6279 8.50342ZM104.166 81.5541C103.277 83.007 103.779 84.9079 105.27 85.7315L125.537 96.9271C127.617 98.0765 130.142 96.4555 129.963 94.0853L128.805 78.7326C128.731 77.7532 128.181 76.8727 127.333 76.3769L115.135 69.2432C113.73 68.4215 111.925 68.8749 111.076 70.2634L104.166 81.5541ZM122.143 54.0188C121.216 55.4172 121.621 57.3044 123.04 58.1993L132.708 64.2965C133.808 64.99 135.23 64.8933 136.226 64.0571L146.988 55.0189C148.601 53.6647 148.345 51.1122 146.496 50.1045L132.92 42.7055C131.558 41.9632 129.854 42.3859 128.997 43.6788L122.143 54.0188ZM118.622 35.9428C119.457 34.6691 119.201 32.9708 118.028 31.9997L114.434 29.0269C113.078 27.9044 111.05 28.1918 110.058 29.6469L56.5483 108.177C56.0282 108.941 55.8901 109.902 56.1742 110.781L58.6649 118.484C59.4373 120.873 62.6323 121.304 64.0094 119.204L118.622 35.9428ZM41.7446 125.003C44.1099 126.086 46.6347 123.84 45.8344 121.365L43.667 114.661C43.3951 113.82 42.765 113.143 41.9459 112.81L19.3166 103.633C17.1383 102.75 14.8395 104.61 15.2492 106.925L16.1201 111.845C16.2912 112.811 16.9261 113.632 17.8187 114.041L41.7446 125.003ZM18.3615 85.0889C17.202 86.6593 17.8341 88.9014 19.643 89.635L43.7741 99.4214C45.0782 99.9503 46.5745 99.4981 47.3675 98.3356L98.3265 23.6234C99.4873 21.9215 98.6193 19.5831 96.6292 19.0508L73.9521 12.9851C72.7649 12.6676 71.5043 13.1088 70.7744 14.0975L18.3615 85.0889ZM159.482 68.6611C159.158 66.4154 156.549 65.3343 154.732 66.6932L143.074 75.4115C142.256 76.0236 141.807 77.0114 141.884 78.0306L142.994 92.7426C143.173 95.1098 145.906 96.3345 147.792 94.8919L160.332 85.2964C161.192 84.6386 161.629 83.5674 161.475 82.4959L159.482 68.6611Z" fill="white"/>
</svg>
