<svg width="153" height="152" viewBox="0 0 153 152" fill="none" xmlns="http://www.w3.org/2000/svg">
<path d="M135.948 69.8556C136.119 70.2769 136.301 70.6946 136.492 71.1084C137.04 72.2934 137.667 73.4461 138.373 74.5578L143.92 71.0374L138.373 74.5578L143.104 82.013C148.056 89.8157 145.674 100.2 137.992 104.977L130.552 109.605C124.701 113.243 120.322 118.848 118.156 125.412L115.38 133.826C112.479 142.617 103.136 147.086 94.7918 143.994L86.5986 140.957C80.1391 138.563 73.0524 138.563 66.5929 140.957L58.3998 143.994C50.0555 147.086 40.7127 142.617 37.8118 133.826L35.0356 125.412C32.8696 118.848 28.491 113.243 22.6398 109.605L15.1992 104.977C7.51741 100.2 5.13523 89.8157 10.0871 82.013L4.60189 78.5318L10.0871 82.013L14.8185 74.5578C18.5179 68.7287 20.0731 61.7742 19.2276 54.9121L18.1426 46.1056C17.0009 36.8397 23.5842 28.6323 32.4318 27.732L41.108 26.8492C44.1066 26.5441 47.0149 25.772 49.7377 24.5813C53.2301 23.054 56.4152 20.8389 59.0975 18.0391L65.185 11.6849L60.4408 7.1398L65.185 11.6849C71.4541 5.14109 81.7374 5.14109 88.0065 11.6849L92.642 7.2439L88.0065 11.6849L94.0941 18.0391C98.8682 23.0224 105.235 26.1523 112.084 26.8492L120.76 27.732C129.607 28.6323 136.191 36.8397 135.049 46.1056L133.964 54.9121C133.336 60.0107 134.033 65.1577 135.948 69.8556ZM135.948 69.8556L142.032 67.376M135.948 69.8556C135.948 69.8556 135.948 69.8557 135.948 69.8557L142.032 67.376M142.032 67.376C142.166 67.7042 142.307 68.0297 142.456 68.352L98.8383 13.4941C102.543 17.3613 107.468 19.7756 112.749 20.3129L121.425 21.1958C134.046 22.4801 143.148 34.098 141.57 46.909L140.485 55.7155C139.994 59.6964 140.539 63.7135 142.032 67.376Z" stroke="white" stroke-width="13.14"/>
</svg>
