<svg width="21" height="20" viewBox="0 0 21 20" fill="none" xmlns="http://www.w3.org/2000/svg">
<path d="M10.5 0.138916C9.18678 0.138916 7.88642 0.397574 6.67317 0.900121C5.45991 1.40267 4.35752 2.13926 3.42893 3.06785C1.55357 4.94321 0.5 7.48675 0.5 10.1389C0.5 14.5589 3.37 18.3089 7.34 19.6389C7.84 19.7189 8 19.4089 8 19.1389V17.4489C5.23 18.0489 4.64 16.1089 4.64 16.1089C4.18 14.9489 3.53 14.6389 3.53 14.6389C2.62 14.0189 3.6 14.0389 3.6 14.0389C4.6 14.1089 5.13 15.0689 5.13 15.0689C6 16.5889 7.47 16.1389 8.04 15.8989C8.13 15.2489 8.39 14.8089 8.67 14.5589C6.45 14.3089 4.12 13.4489 4.12 9.63892C4.12 8.52892 4.5 7.63892 5.15 6.92892C5.05 6.67892 4.7 5.63892 5.25 4.28892C5.25 4.28892 6.09 4.01892 8 5.30892C8.79 5.08892 9.65 4.97892 10.5 4.97892C11.35 4.97892 12.21 5.08892 13 5.30892C14.91 4.01892 15.75 4.28892 15.75 4.28892C16.3 5.63892 15.95 6.67892 15.85 6.92892C16.5 7.63892 16.88 8.52892 16.88 9.63892C16.88 13.4589 14.54 14.2989 12.31 14.5489C12.67 14.8589 13 15.4689 13 16.3989V19.1389C13 19.4089 13.16 19.7289 13.67 19.6389C17.64 18.2989 20.5 14.5589 20.5 10.1389C20.5 8.8257 20.2413 7.52534 19.7388 6.31208C19.2362 5.09883 18.4997 3.99643 17.5711 3.06785C16.6425 2.13926 15.5401 1.40267 14.3268 0.900121C13.1136 0.397574 11.8132 0.138916 10.5 0.138916Z" fill="#243F76"/>
</svg>
