<svg width="23" height="22" viewBox="0 0 23 22" fill="none" xmlns="http://www.w3.org/2000/svg">
<path d="M11.5 0C9.9898 0 8.49438 0.291587 7.09914 0.858113C5.7039 1.42464 4.43615 2.25501 3.36827 3.30181C1.2116 5.41593 0 8.28329 0 11.2731C0 16.2558 3.3005 20.4832 7.866 21.9825C8.441 22.0727 8.625 21.7233 8.625 21.4189V19.5137C5.4395 20.1901 4.761 18.0031 4.761 18.0031C4.232 16.6955 3.4845 16.346 3.4845 16.346C2.438 15.6471 3.565 15.6696 3.565 15.6696C4.715 15.7485 5.3245 16.8307 5.3245 16.8307C6.325 18.5442 8.0155 18.037 8.671 17.7664C8.7745 17.0336 9.0735 16.5376 9.3955 16.2558C6.8425 15.974 4.163 15.0045 4.163 10.7094C4.163 9.45813 4.6 8.45482 5.3475 7.65443C5.2325 7.37261 4.83 6.2002 5.4625 4.67834C5.4625 4.67834 6.4285 4.37396 8.625 5.82819C9.5335 5.58018 10.5225 5.45618 11.5 5.45618C12.4775 5.45618 13.4665 5.58018 14.375 5.82819C16.5715 4.37396 17.5375 4.67834 17.5375 4.67834C18.17 6.2002 17.7675 7.37261 17.6525 7.65443C18.4 8.45482 18.837 9.45813 18.837 10.7094C18.837 15.0158 16.146 15.9627 13.5815 16.2445C13.9955 16.594 14.375 17.2817 14.375 18.3301V21.4189C14.375 21.7233 14.559 22.084 15.1455 21.9825C19.711 20.4719 23 16.2558 23 11.2731C23 9.79269 22.7025 8.32678 22.1246 6.95907C21.5467 5.59135 20.6996 4.34862 19.6317 3.30181C18.5639 2.25501 17.2961 1.42464 15.9009 0.858113C14.5056 0.291587 13.0102 0 11.5 0Z" fill="white"/>
</svg>
