<svg width="16" height="19" viewBox="0 0 16 19" fill="none" xmlns="http://www.w3.org/2000/svg">
<path d="M1.33331 0C0.979692 0 0.64056 0.142984 0.390517 0.397498C0.140473 0.652012 0 0.997206 0 1.35714V19H2.66661V1.35714C2.66661 0.997206 2.52614 0.652012 2.2761 0.397498C2.02605 0.142984 1.68692 0 1.33331 0ZM15.7504 7.50229L3.33327 12.6187V1.63129L15.7504 6.74704C15.8241 6.77749 15.8873 6.82967 15.9318 6.89688C15.9762 6.96409 16 7.04329 16 7.12432C16 7.20536 15.9762 7.28455 15.9318 7.35176C15.8873 7.41897 15.8241 7.47115 15.7504 7.50161V7.50229Z" fill="white"/>
</svg>
