<svg width="20" height="19" viewBox="0 0 20 19" fill="none" xmlns="http://www.w3.org/2000/svg">
<path d="M4.58619 1.96552V0.854345C4.58619 0.38131 4.95178 0 5.40516 0C5.85854 0 6.22412 0.38131 6.22412 0.854345V1.96552H4.58619ZM12.7758 11.269C12.7758 11.1473 12.8242 11.0307 12.9102 10.9447C12.9962 10.8587 13.1128 10.8103 13.2345 10.8103H14.9379C15.0595 10.8103 15.1762 10.8587 15.2622 10.9447C15.3482 11.0307 15.3965 11.1473 15.3965 11.269V12.9724C15.3965 13.094 15.3482 13.2107 15.2622 13.2967C15.1762 13.3827 15.0595 13.431 14.9379 13.431H13.2345C13.1128 13.431 12.9962 13.3827 12.9102 13.2967C12.8242 13.2107 12.7758 13.094 12.7758 12.9724V11.269ZM4.25861 7.9931C4.25861 7.87147 4.30692 7.75482 4.39293 7.66881C4.47894 7.5828 4.59559 7.53448 4.71723 7.53448H6.42068C6.54231 7.53448 6.65896 7.5828 6.74497 7.66881C6.83098 7.75482 6.8793 7.87147 6.8793 7.9931V9.69655C6.8793 9.81818 6.83098 9.93484 6.74497 10.0208C6.65896 10.1069 6.54231 10.1552 6.42068 10.1552H4.71723C4.59559 10.1552 4.47894 10.1069 4.39293 10.0208C4.30692 9.93484 4.25861 9.81818 4.25861 9.69655V7.9931ZM4.91378 8.18966V9.5H6.22412V8.18966H4.91378ZM8.51723 7.9931C8.51723 7.87147 8.56555 7.75482 8.65155 7.66881C8.73756 7.5828 8.85421 7.53448 8.97585 7.53448H10.6793C10.8009 7.53448 10.9176 7.5828 11.0036 7.66881C11.0896 7.75482 11.1379 7.87147 11.1379 7.9931V9.69655C11.1379 9.81818 11.0896 9.93484 11.0036 10.0208C10.9176 10.1069 10.8009 10.1552 10.6793 10.1552H8.97585C8.85421 10.1552 8.73756 10.1069 8.65155 10.0208C8.56555 9.93484 8.51723 9.81818 8.51723 9.69655V7.9931ZM9.1724 8.18966V9.5H10.4827V8.18966H9.1724ZM12.7758 7.9931C12.7758 7.87147 12.8242 7.75482 12.9102 7.66881C12.9962 7.5828 13.1128 7.53448 13.2345 7.53448H14.9379C15.0595 7.53448 15.1762 7.5828 15.2622 7.66881C15.3482 7.75482 15.3965 7.87147 15.3965 7.9931V9.69655C15.3965 9.81818 15.3482 9.93484 15.2622 10.0208C15.1762 10.1069 15.0595 10.1552 14.9379 10.1552H13.2345C13.1128 10.1552 12.9962 10.1069 12.9102 10.0208C12.8242 9.93484 12.7758 9.81818 12.7758 9.69655V7.9931ZM13.431 8.18966V9.5H14.7414V8.18966H13.431ZM4.25861 11.269C4.25861 11.1473 4.30692 11.0307 4.39293 10.9447C4.47894 10.8587 4.59559 10.8103 4.71723 10.8103H6.42068C6.54231 10.8103 6.65896 10.8587 6.74497 10.9447C6.83098 11.0307 6.8793 11.1473 6.8793 11.269V12.9724C6.8793 13.094 6.83098 13.2107 6.74497 13.2967C6.65896 13.3827 6.54231 13.431 6.42068 13.431H4.71723C4.59559 13.431 4.47894 13.3827 4.39293 13.2967C4.30692 13.2107 4.25861 13.094 4.25861 12.9724V11.269ZM4.91378 11.4655V12.7759H6.22412V11.4655H4.91378ZM8.51723 11.269C8.51723 11.1473 8.56555 11.0307 8.65155 10.9447C8.73756 10.8587 8.85421 10.8103 8.97585 10.8103H10.6793C10.8009 10.8103 10.9176 10.8587 11.0036 10.9447C11.0896 11.0307 11.1379 11.1473 11.1379 11.269V12.9724C11.1379 13.094 11.0896 13.2107 11.0036 13.2967C10.9176 13.3827 10.8009 13.431 10.6793 13.431H8.97585C8.85421 13.431 8.73756 13.3827 8.65155 13.2967C8.56555 13.2107 8.51723 13.094 8.51723 12.9724V11.269ZM9.1724 11.4655V12.7759H10.4827V11.4655H9.1724ZM4.25861 14.5448C4.25861 14.4232 4.30692 14.3065 4.39293 14.2205C4.47894 14.1345 4.59559 14.0862 4.71723 14.0862H6.42068C6.54231 14.0862 6.65896 14.1345 6.74497 14.2205C6.83098 14.3065 6.8793 14.4232 6.8793 14.5448V16.2483C6.8793 16.3699 6.83098 16.4866 6.74497 16.5726C6.65896 16.6586 6.54231 16.7069 6.42068 16.7069H4.71723C4.59559 16.7069 4.47894 16.6586 4.39293 16.5726C4.30692 16.4866 4.25861 16.3699 4.25861 16.2483V14.5448ZM4.91378 14.7414V16.0517H6.22412V14.7414H4.91378ZM8.51723 14.5448C8.51723 14.4232 8.56555 14.3065 8.65155 14.2205C8.73756 14.1345 8.85421 14.0862 8.97585 14.0862H10.6793C10.8009 14.0862 10.9176 14.1345 11.0036 14.2205C11.0896 14.3065 11.1379 14.4232 11.1379 14.5448V16.2483C11.1379 16.3699 11.0896 16.4866 11.0036 16.5726C10.9176 16.6586 10.8009 16.7069 10.6793 16.7069H8.97585C8.85421 16.7069 8.73756 16.6586 8.65155 16.5726C8.56555 16.4866 8.51723 16.3699 8.51723 16.2483V14.5448ZM9.1724 14.7414V16.0517H10.4827V14.7414H9.1724Z" fill="white"/>
<path d="M4.58621 3.07672C4.58621 3.54975 4.95179 3.93106 5.40517 3.93106C5.85855 3.93106 6.22414 3.54975 6.22414 3.07672V1.96554H13.431V3.07672C13.431 3.54975 13.7966 3.93106 14.25 3.93106C14.7034 3.93106 15.069 3.54975 15.069 3.07672V1.96554H17.1924C18.5486 1.96554 19.6552 3.07344 19.6552 4.44537V15.8814C19.6552 17.598 18.2629 19 16.5372 19H3.11862C2.29194 18.9986 1.49951 18.6696 0.914954 18.0851C0.330399 17.5005 0.00138589 16.7081 0 15.8814V4.44537C0 3.07344 1.10724 1.95899 2.46279 1.96554H4.58621V3.07672ZM1.31034 5.89658V15.8814C1.31173 16.3605 1.5026 16.8195 1.84127 17.1583C2.17995 17.4971 2.63892 17.6881 3.11797 17.6897H14.0928V16.7069H13.2345C13.1128 16.7069 12.9962 16.6586 12.9102 16.5726C12.8242 16.4866 12.7759 16.3699 12.7759 16.2483V14.5449C12.7759 14.4232 12.8242 14.3066 12.9102 14.2206C12.9962 14.1346 13.1128 14.0862 13.2345 14.0862H14.9379C14.9823 14.0862 15.0264 14.0926 15.069 14.1052C15.5735 13.6702 16.2176 13.4309 16.8838 13.4311H18.3448V5.89658H1.31034ZM14.1 16.017C14.1331 15.5639 14.2771 15.1258 14.5193 14.7414H13.431V16.0518H14.098L14.1 16.017ZM14.7479 17.5541L18.2158 14.0862H16.8838C16.3179 14.088 15.7756 14.3135 15.3754 14.7137C14.9752 15.1139 14.7497 15.6562 14.7479 16.2221V17.5541Z" fill="white"/>
<path d="M13.431 0.854345V1.96552H15.069V0.854345C15.069 0.38131 14.7034 0 14.25 0C13.7966 0 13.431 0.38131 13.431 0.854345Z" fill="white"/>
</svg>
