<svg width="14" height="14" viewBox="0 0 14 14" fill="none" xmlns="http://www.w3.org/2000/svg">
<path d="M6.63347 1.46773e-08C4.17718 1.46773e-08 2.15934 1.9315 1.9387 4.3981C1.66876 4.46542 1.43013 4.6275 1.26399 4.85636C1.09784 5.08522 1.01461 5.36652 1.02863 5.65173C1.04265 5.93694 1.15306 6.20817 1.34081 6.41864C1.52855 6.62911 1.78186 6.76561 2.05704 6.8046C2.099 6.97812 2.14991 7.14776 2.20932 7.31353L2.18622 7.30965C2.06688 7.28651 1.94628 7.27097 1.82508 7.26312H1.80057C1.49035 7.27282 1.31025 7.5234 1.25273 7.72988C1.19144 7.94993 1.22916 8.18792 1.32062 8.41621L1.35834 8.51024L0.640782 8.70217L0.637482 8.70314C0.400811 8.76809 0.0575906 8.92126 0.0057304 9.32016C-0.0140708 9.47187 0.0222314 9.60128 0.0420326 9.66381C0.0514617 9.69483 0.0627766 9.72536 0.0703199 9.7462L0.0722057 9.75153L0.0882353 9.79855C0.166497 10.0603 0.331035 10.3206 0.519618 10.5489C0.897617 11.0007 1.36672 11.3626 1.89439 11.6094L1.64357 11.8372C1.5589 11.9114 1.4921 12.0048 1.44839 12.11C1.39862 12.2346 1.38969 12.3724 1.42293 12.5027C1.44839 12.6054 1.49506 12.6868 1.52335 12.7338C1.54456 12.7687 1.57191 12.8099 1.59265 12.841L1.60963 12.8662C1.78642 13.1347 2.09805 13.3901 2.46155 13.5855C2.83447 13.7866 3.30074 13.9451 3.81934 13.9882C4.816 14.0716 5.96164 13.7241 6.96066 12.5419C7.96014 13.7246 9.10578 14.0716 10.102 13.9882C10.5761 13.9484 11.0377 13.8116 11.4598 13.5859C11.8233 13.3901 12.1349 13.1347 12.3117 12.8662L12.3287 12.841C12.3494 12.8099 12.3772 12.7683 12.398 12.7338C12.4428 12.6625 12.4766 12.5845 12.4984 12.5027C12.5316 12.3724 12.5227 12.2346 12.4729 12.11C12.4293 12.0051 12.3627 11.9118 12.2782 11.8377L12.0529 11.6326C12.6017 11.386 13.0896 11.0156 13.4804 10.5489C13.669 10.3206 13.8335 10.0603 13.9118 9.79855L13.9278 9.75153L13.9297 9.7462C13.9373 9.72536 13.9481 9.69483 13.958 9.66381C13.9773 9.60079 14.0141 9.47187 13.9943 9.32016C13.9425 8.92126 13.5992 8.76809 13.3626 8.70314L13.3593 8.70217L12.6412 8.51024L12.679 8.41621C12.7704 8.1884 12.8086 7.94993 12.7473 7.72988C12.6898 7.5234 12.5092 7.27282 12.199 7.26312H12.1754C12.0584 7.27055 11.9418 7.28544 11.8266 7.30771C11.8893 7.13128 11.9425 6.95001 11.9859 6.76486C12.2221 6.69215 12.4306 6.54602 12.5828 6.34656C12.735 6.14709 12.8233 5.90408 12.8357 5.6509C12.8481 5.39773 12.784 5.14681 12.6521 4.93264C12.5202 4.71847 12.327 4.55155 12.0991 4.45481C12.0032 3.24113 11.4666 2.10899 10.5958 1.28357C9.72506 0.45814 8.584 -9.46918e-05 7.39958 1.46773e-08H6.63347ZM11.1538 4.46984C10.9539 4.56225 10.7825 4.70948 10.6586 4.89538C10.5347 5.08128 10.4629 5.29868 10.4513 5.52373C10.4396 5.74877 10.4884 5.97279 10.5923 6.1712C10.6963 6.36961 10.8514 6.53476 11.0406 6.64853C10.8238 7.47062 10.3497 8.19645 9.69163 8.71399C9.03357 9.23153 8.22811 9.512 7.39958 9.5121H6.63347C5.78749 9.51203 4.96607 9.21968 4.30113 8.68199C3.63619 8.1443 3.16631 7.39247 2.96695 6.54723C3.11456 6.42609 3.23205 6.27062 3.30974 6.09363C3.38744 5.91665 3.4231 5.72321 3.4138 5.52927C3.4045 5.33533 3.3505 5.14644 3.25625 4.97817C3.162 4.8099 3.0302 4.66707 2.87171 4.56144C2.94183 3.58507 3.3686 2.67211 4.06635 2.00583C4.7641 1.33956 5.68117 0.969298 6.63347 0.969386H7.39958C8.33646 0.969275 9.23984 1.32765 9.93382 1.97471C10.6278 2.62178 11.0627 3.51122 11.1538 4.46984ZM10.7799 9.01335L12.9755 9.60128C12.935 9.68513 12.8661 9.79516 12.7615 9.92118C12.62 10.0928 12.4343 10.2702 12.224 10.4253C11.8718 10.6851 11.5107 10.8421 11.2113 10.8697C10.7876 10.485 10.3623 10.1021 9.93555 9.721C10.2425 9.51928 10.5259 9.28183 10.7799 9.01335ZM9.06665 10.1698C9.09494 10.2357 9.13784 10.2963 9.19536 10.3458C9.45466 10.5692 10.7201 11.716 11.4706 12.3975C11.3857 12.4896 11.2377 12.6107 11.0227 12.7271C10.7127 12.8925 10.3737 12.9928 10.0256 13.0222C9.28729 13.0838 8.36324 12.8293 7.51273 11.7058L7.5099 11.7024C7.4802 11.6636 7.41467 11.5764 7.32509 11.5105C7.21945 11.4319 7.09092 11.3925 6.96066 11.399C6.83039 11.3925 6.70186 11.4319 6.59622 11.5105C6.50664 11.5764 6.44064 11.6636 6.41141 11.7024L6.40905 11.7058C5.55807 12.8293 4.63402 13.0838 3.89619 13.0222C3.54787 12.9927 3.20875 12.8922 2.89859 12.7266C2.6836 12.6112 2.53557 12.4891 2.4507 12.3975L3.07303 11.8328C3.09377 11.8304 3.11499 11.828 3.13573 11.8246L3.1296 11.7809C3.65861 11.2991 4.19074 10.8208 4.72595 10.3463C4.7922 10.2895 4.84195 10.215 4.86975 10.131C5.43028 10.3633 6.02912 10.4823 6.63347 10.4815H7.39958C7.96904 10.4822 8.53389 10.3766 9.06665 10.1698ZM4.03338 9.67835C3.78775 9.895 3.25265 10.3778 2.71896 10.861C2.43373 10.8179 2.10041 10.6657 1.77511 10.4248C1.57712 10.2796 1.39669 10.1108 1.23765 9.92166C1.15436 9.82394 1.08267 9.71639 1.02408 9.60128L3.24605 9.00559C3.48319 9.25763 3.74721 9.4835 4.03338 9.67786V9.67835ZM2.31822 12.2123L2.31917 12.2147C2.31883 12.2139 2.31852 12.2131 2.31822 12.2123ZM11.6021 12.2123L11.6012 12.2147C11.6015 12.2139 11.6019 12.2131 11.6021 12.2123Z" fill="black"/>
</svg>
