<svg width="375" height="174" viewBox="0 0 375 174" fill="none" xmlns="http://www.w3.org/2000/svg">
<g clip-path="url(#clip0_581_2504)">
<g style="mix-blend-mode:color-burn">
<rect x="138.881" y="36.8047" width="50.4482" height="50.4482" stroke="black"/>
<rect x="189.186" y="36.8047" width="50.4482" height="50.4482" stroke="black"/>
<rect x="138.881" y="-13.5" width="50.4482" height="50.4482" stroke="black"/>
<rect x="189.186" y="-13.5" width="50.4482" height="50.4482" stroke="black"/>
<rect x="239.49" y="36.8047" width="49.3049" height="50.4482" stroke="black"/>
<rect x="288.652" y="36.8047" width="50.4482" height="50.4482" stroke="black"/>
<rect x="239.49" y="-13.5" width="49.3049" height="50.4482" stroke="black"/>
<rect x="288.652" y="-13.5" width="50.4482" height="50.4482" stroke="black"/>
<rect x="138.881" y="136.271" width="50.4482" height="50.4482" stroke="black"/>
<rect x="189.186" y="136.271" width="50.4482" height="50.4482" stroke="black"/>
<rect x="138.881" y="87.1099" width="50.4482" height="49.3049" stroke="black"/>
<rect x="189.186" y="87.1099" width="50.4482" height="49.3049" stroke="black"/>
<rect x="239.49" y="136.271" width="49.3049" height="50.4482" stroke="black"/>
<rect x="288.652" y="136.271" width="50.4482" height="50.4482" stroke="black"/>
<rect x="239.49" y="87.1099" width="49.3049" height="49.3049" stroke="black"/>
<rect x="288.652" y="87.1099" width="50.4482" height="49.3049" stroke="black"/>
<rect x="338.957" y="36.8047" width="50.4482" height="50.4482" stroke="black"/>
<rect x="338.957" y="-13.5" width="50.4482" height="50.4482" stroke="black"/>
<rect x="338.957" y="136.271" width="50.4482" height="50.4482" stroke="black"/>
<rect x="338.957" y="87.1099" width="50.4482" height="49.3049" stroke="black"/>
<rect x="-10.8906" y="36.8047" width="49.3049" height="50.4482" stroke="black"/>
<rect x="38.2705" y="36.8047" width="50.4482" height="50.4482" stroke="black"/>
<rect x="-10.8906" y="-13.5" width="49.3049" height="50.4482" stroke="black"/>
<rect x="38.2705" y="-13.5" width="50.4482" height="50.4482" stroke="black"/>
<rect x="-10.8906" y="136.271" width="49.3049" height="50.4482" stroke="black"/>
<rect x="38.2705" y="136.271" width="50.4482" height="50.4482" stroke="black"/>
<rect x="-10.8906" y="87.1099" width="49.3049" height="49.3049" stroke="black"/>
<rect x="38.2705" y="87.1099" width="50.4482" height="49.3049" stroke="black"/>
<rect x="88.5762" y="36.8047" width="50.4482" height="50.4482" stroke="black"/>
<rect x="88.5762" y="-13.5" width="50.4482" height="50.4482" stroke="black"/>
<rect x="88.5762" y="136.271" width="50.4482" height="50.4482" stroke="black"/>
<rect x="88.5762" y="87.1099" width="50.4482" height="49.3049" stroke="black"/>
</g>
</g>
<defs>
<clipPath id="clip0_581_2504">
<rect width="375" height="173.78" fill="white"/>
</clipPath>
</defs>
</svg>
