<svg width="14" height="14" viewBox="0 0 14 14" fill="none" xmlns="http://www.w3.org/2000/svg">
<path d="M9.61217 0.411889C9.48161 0.281306 9.32661 0.17772 9.15602 0.107047C8.98543 0.0363749 8.80259 0 8.61794 0C8.43329 0 8.25045 0.0363749 8.07986 0.107047C7.90927 0.17772 7.75427 0.281306 7.62372 0.411889L5.96753 2.06861C5.6922 2.34397 5.50939 2.69821 5.44447 3.08217C5.37956 3.46613 5.43576 3.86077 5.60527 4.21134L3.03383 5.49501C2.68443 5.66957 2.37523 5.91499 2.12591 6.21564C1.87658 6.51629 1.69262 6.86558 1.58572 7.24125L0.0392041 12.6857C-0.0109899 12.8626 -0.0130219 13.0497 0.0333182 13.2277C0.0796583 13.4057 0.172689 13.568 0.302791 13.698C0.432894 13.828 0.595347 13.9208 0.773354 13.967C0.951362 14.0131 1.13846 14.0109 1.31532 13.9605L6.75673 12.4115C7.1321 12.3047 7.48112 12.1209 7.78159 11.8718C8.08205 11.6228 8.32738 11.3139 8.50195 10.9648L9.78603 8.39323C10.1367 8.56347 10.5317 8.62033 10.9161 8.55592C11.3006 8.4915 11.6554 8.30901 11.9315 8.03376L13.5881 6.37704C13.7187 6.24648 13.8223 6.09147 13.893 5.92087C13.9636 5.75028 14 5.56743 14 5.38277C14 5.19811 13.9636 5.01526 13.893 4.84466C13.8223 4.67407 13.7187 4.51906 13.5881 4.3885L9.6117 0.411889H9.61217ZM8.28638 1.07458C8.3299 1.031 8.38159 0.996437 8.43848 0.972851C8.49537 0.949266 8.55635 0.937127 8.61794 0.937127C8.67953 0.937127 8.74051 0.949266 8.7974 0.972851C8.85429 0.996437 8.90598 1.031 8.9495 1.07458L12.9259 5.05119C13.0138 5.13908 13.0631 5.25826 13.0631 5.38253C13.0631 5.50681 13.0138 5.62599 12.9259 5.71388L11.2688 7.37107L6.62926 2.73131L8.28638 1.07458ZM6.62972 4.71984L9.27756 7.36779C9.24199 7.40344 9.2124 7.44458 9.18992 7.48965L7.66402 10.5453C7.54772 10.7781 7.38424 10.9841 7.18398 11.1502C6.98373 11.3164 6.75108 11.439 6.50085 11.5103L1.82145 12.8418L4.69798 9.96513C4.99727 10.1077 5.3373 10.14 5.65807 10.0562C5.97883 9.97251 6.25971 9.77815 6.45112 9.50747C6.64253 9.23679 6.73218 8.90719 6.70424 8.57684C6.67629 8.24649 6.53256 7.93663 6.29839 7.70195C6.064 7.46672 5.75392 7.32205 5.42307 7.29357C5.09223 7.26509 4.76198 7.35464 4.49084 7.54635C4.2197 7.73807 4.02516 8.01958 3.9417 8.341C3.85824 8.66242 3.89124 9.00301 4.03485 9.30244L1.15739 12.18L2.48833 7.49714C2.55947 7.24677 2.68196 7.01396 2.84801 6.81353C3.01406 6.6131 3.22003 6.44944 3.4528 6.33298L6.50788 4.80748C6.55297 4.78487 6.59412 4.75512 6.62972 4.71938V4.71984Z" fill="black"/>
</svg>
