<svg width="18" height="19" viewBox="0 0 18 19" fill="none" xmlns="http://www.w3.org/2000/svg">
<path d="M9.97258 0H8.02016C7.50351 0.000653543 6.99296 0.11297 6.52264 0.329438C6.05233 0.545906 5.63309 0.861535 5.29297 1.25522C4.95286 1.6489 4.6997 2.11155 4.55043 2.61225C4.40116 3.11294 4.35922 3.64013 4.42742 4.15855L4.48403 5.04316C4.12638 5.10009 3.80265 5.29026 3.57636 5.57636C3.35008 5.86247 3.23758 6.22384 3.26094 6.58958C3.2843 6.95531 3.44183 7.29901 3.70263 7.55324C3.96342 7.80746 4.30864 7.95385 4.67056 7.96369L4.75403 9.25754C4.84634 9.95556 5.1451 10.609 5.61106 11.1319C6.07701 11.6549 6.68836 12.0229 7.36476 12.1876C5.58243 12.5072 3.92957 13.3421 2.60565 14.5916V14.5843C1.42818 15.6953 0.553297 17.0946 0.0653227 18.6473V18.7282C0.0392656 18.8052 0.0174577 18.8837 0 18.9633L2.60347 18.9927L2.60492 19H15.3936L15.3958 18.9927L18 18.9633L17.984 18.9199C17.9565 18.8595 17.9398 18.7945 17.9347 18.7282V18.6473C17.444 17.0959 16.5696 15.6972 15.3944 14.5843V14.5916C14.0712 13.3434 12.4197 12.509 10.6389 12.1891C11.3162 12.025 11.9285 11.6571 12.3952 11.1338C12.8619 10.6105 13.161 9.95634 13.2532 9.25754L13.3323 7.96148C13.6852 7.93871 14.0176 7.78639 14.2674 7.53309C14.5171 7.27979 14.667 6.94293 14.6888 6.58573C14.7107 6.22853 14.603 5.87554 14.3859 5.59302C14.1689 5.31049 13.8575 5.11785 13.5102 5.05124L13.5653 4.15855C13.6336 3.64011 13.5918 3.11287 13.4426 2.61213C13.2933 2.11138 13.0402 1.64867 12.7001 1.25497C12.3599 0.861257 11.9406 0.545628 11.4703 0.3292C10.9999 0.112771 10.4893 0.00053424 9.97258 0Z" fill="white"/>
</svg>
