<svg width="19" height="19" viewBox="0 0 19 19" fill="none" xmlns="http://www.w3.org/2000/svg">
<path d="M3.16667 0C2.75081 0 2.33903 0.0819083 1.95484 0.241048C1.57064 0.400188 1.22155 0.633443 0.927495 0.927495C0.33363 1.52136 0 2.32681 0 3.16667V15.8333C0 16.6732 0.33363 17.4786 0.927495 18.0725C1.22155 18.3666 1.57064 18.5998 1.95484 18.759C2.33903 18.9181 2.75081 19 3.16667 19H15.8333C16.6732 19 17.4786 18.6664 18.0725 18.0725C18.6664 17.4786 19 16.6732 19 15.8333V3.16667C19 2.75081 18.9181 2.33903 18.759 1.95484C18.5998 1.57064 18.3666 1.22155 18.0725 0.927495C17.7785 0.633443 17.4294 0.400188 17.0452 0.241048C16.661 0.0819083 16.2492 0 15.8333 0H3.16667ZM1.26667 3.16667C1.26667 2.66276 1.46684 2.17948 1.82316 1.82316C2.17948 1.46684 2.66276 1.26667 3.16667 1.26667H15.8333C16.7371 1.26667 17.4927 1.89747 17.6858 2.74233L8.84767 11.6071C8.78933 11.6658 8.71034 11.6993 8.62761 11.7005C8.54487 11.7017 8.46496 11.6704 8.40497 11.6134L7.04457 10.3214C6.78224 10.0725 6.43338 9.93524 6.07172 9.93878C5.71007 9.94233 5.36396 10.0864 5.10657 10.3404L1.26667 14.1297V3.16667ZM1.26793 15.8979L5.84947 11.3582C5.90766 11.3005 5.98598 11.2675 6.06796 11.2663C6.14993 11.2652 6.22917 11.2958 6.289 11.3519L7.65067 12.6299C7.91356 12.8766 8.2618 13.0117 8.62224 13.007C8.98268 13.0023 9.32726 12.858 9.5836 12.6046L17.7333 4.5448V15.8333C17.7333 16.3372 17.5332 16.8205 17.1768 17.1768C16.8205 17.5332 16.3372 17.7333 15.8333 17.7333H3.16667C2.67397 17.7333 2.20056 17.5419 1.84631 17.1994C1.49206 16.857 1.28469 16.3903 1.26793 15.8979Z" fill="white"/>
</svg>
