<svg width="20" height="19" viewBox="0 0 20 19" fill="none" xmlns="http://www.w3.org/2000/svg">
<path d="M19.2777 0.748963C18.8178 0.280979 18.1938 0.0123079 17.5392 0.000412436C16.8846 -0.011483 16.2513 0.234342 15.7749 0.68531L6.27841 9.67238L6.26855 9.67097L4.76926 11.1562C4.65745 11.2668 4.56485 11.3954 4.49532 11.5367C3.90325 11.5167 3.32013 11.6859 2.82983 12.0198C2.30986 12.3226 1.87751 12.7564 1.57544 13.2783C1.27337 13.8002 1.11201 14.3922 1.1073 14.9959C1.11849 15.2442 1.0807 15.4924 0.996102 15.726C0.911504 15.9597 0.781767 16.1742 0.614346 16.3573L0.0587138 16.88L0.0171647 17.1092C-0.0290688 17.3612 0.0188538 17.6216 0.151766 17.8404C0.284678 18.0592 0.49325 18.2212 0.737585 18.2952L2.55378 18.849L2.90589 18.9197C3.76665 19.0771 4.6536 19.0022 5.47605 18.7024C6.29849 18.4027 7.02692 17.889 7.58686 17.2138C7.99108 16.7301 8.22066 16.1254 8.24179 15.498C8.41784 15.4308 8.58404 15.3255 8.7277 15.184L9.28967 14.6267L9.30023 14.6479L19.2953 4.26755C19.7503 3.795 20.0033 3.1624 20 2.50501C19.9967 1.84762 19.7374 1.2169 19.2777 0.748963ZM8.99037 12.9349L7.01151 10.9221L16.7411 1.71436C16.9499 1.51759 17.227 1.41053 17.5132 1.41602C17.7995 1.42151 18.0723 1.53911 18.2735 1.74374C18.4747 1.94836 18.5883 2.22383 18.5901 2.5114C18.592 2.79896 18.4819 3.07586 18.2833 3.28305L8.99037 12.9349ZM3.15941 17.5293L2.92701 17.4861L1.81152 17.1466C2.24317 16.5719 2.48631 15.8767 2.5073 15.1571C2.48871 14.7622 2.58091 14.37 2.77339 14.0252C2.96587 13.6803 3.2509 13.3967 3.59603 13.2065C3.86776 13.0169 4.19727 12.9295 4.52679 12.9595C4.8563 12.9895 5.16478 13.135 5.39813 13.3706L6.42207 14.4025C6.66996 14.6525 6.81583 14.9866 6.83108 15.3391C6.84632 15.6916 6.72983 16.0371 6.50447 16.3078C6.10445 16.7906 5.58401 17.158 4.99631 17.3726C4.40861 17.5872 3.77472 17.6413 3.15941 17.5293Z" fill="white"/>
</svg>
