<svg width="20" height="20" viewBox="0 0 20 20" fill="none" xmlns="http://www.w3.org/2000/svg">
<path d="M8.11341 1.90476H11.8907C12.4101 1.90476 12.8351 1.47619 12.8351 0.952381C12.8351 0.428571 12.4101 0 11.8907 0H8.11341C7.59402 0 7.16907 0.428571 7.16907 0.952381C7.16907 1.47619 7.59402 1.90476 8.11341 1.90476ZM16.6407 6.08571L17.349 5.37143C17.5236 5.19424 17.6216 4.95458 17.6216 4.70476C17.6216 4.45495 17.5236 4.21528 17.349 4.03809L17.3395 4.02857C17.1639 3.85247 16.9262 3.75363 16.6785 3.75363C16.4308 3.75363 16.1932 3.85247 16.0175 4.02857L15.3092 4.74286C13.8052 3.52221 11.9326 2.85685 10.0021 2.85714C5.46927 2.85714 1.61639 6.62857 1.50307 11.2C1.47253 12.3448 1.66981 13.4841 2.08326 14.5507C2.4967 15.6173 3.11792 16.5894 3.91022 17.4098C4.70251 18.2301 5.6498 18.882 6.69612 19.3269C7.74244 19.7718 8.86656 20.0007 10.0021 20C11.6021 20.0009 13.1698 19.5459 14.5246 18.6876C15.8794 17.8292 16.9663 16.6024 17.6601 15.1483C18.3538 13.6943 18.6262 12.0722 18.4459 10.4688C18.2655 8.86547 17.6398 7.3461 16.6407 6.08571ZM10.9464 11.4286C10.9464 11.9524 10.5215 12.381 10.0021 12.381C9.48269 12.381 9.05774 11.9524 9.05774 11.4286V7.61905C9.05774 7.09524 9.48269 6.66667 10.0021 6.66667C10.5215 6.66667 10.9464 7.09524 10.9464 7.61905V11.4286Z" fill="#1B1B1B"/>
</svg>
