<svg width="20" height="20" viewBox="0 0 20 20" fill="none" xmlns="http://www.w3.org/2000/svg">
<path fill-rule="evenodd" clip-rule="evenodd" d="M5 2C4.73478 2 4.48043 2.10536 4.29289 2.29289C4.10536 2.48043 4 2.73478 4 3V17.0568L9.41876 13.1863C9.76646 12.9379 10.2335 12.9379 10.5812 13.1863L16 17.0568V3C16 2.73478 15.8946 2.48043 15.7071 2.29289C15.5196 2.10536 15.2652 2 15 2H5ZM2.87868 0.87868C3.44129 0.31607 4.20435 0 5 0H15C15.7956 0 16.5587 0.31607 17.1213 0.87868C17.6839 1.44129 18 2.20435 18 3V19C18 19.3746 17.7907 19.7178 17.4576 19.8892C17.1245 20.0606 16.7236 20.0315 16.4188 19.8137L10 15.2289L3.58124 19.8137C3.27642 20.0315 2.87549 20.0606 2.54242 19.8892C2.20935 19.7178 2 19.3746 2 19V3C2 2.20435 2.31607 1.44129 2.87868 0.87868Z" fill="#1B1B1B"/>
</svg>
