<svg width="20" height="20" viewBox="0 0 20 20" fill="none" xmlns="http://www.w3.org/2000/svg">
<path fill-rule="evenodd" clip-rule="evenodd" d="M2.22222 20C1.61111 20 1.08778 19.7822 0.652224 19.3467C0.216668 18.9111 -0.000738854 18.3881 1.88644e-06 17.7778V2.22222C1.88644e-06 1.61111 0.21778 1.08778 0.653335 0.652224C1.08889 0.216668 1.61185 -0.000738854 2.22222 1.88644e-06H17.7778C18.3889 1.88644e-06 18.9122 0.21778 19.3478 0.653335C19.7833 1.08889 20.0007 1.61185 20 2.22222V17.7778C20 18.3889 19.7822 18.9122 19.3467 19.3478C18.9111 19.7833 18.3881 20.0007 17.7778 20H2.22222ZM11.9167 13.8333C11.3426 14.2407 10.7037 14.4444 10 14.4444C9.2963 14.4444 8.65741 14.2407 8.08333 13.8333C7.50926 13.4259 7.11111 12.8889 6.88889 12.2222H2.22222V2.22222H17.7778V12.2222H13.1111C12.8889 12.8889 12.4907 13.4259 11.9167 13.8333Z" fill="#1B1B1B"/>
</svg>
