<svg width="20" height="20" viewBox="0 0 20 20" fill="none" xmlns="http://www.w3.org/2000/svg">
<path d="M12.3908 11.2222H16.7782V3.22217H3.22266V11.2222H7.61008L7.83801 11.9059C7.99294 12.3707 8.26132 12.7331 8.66251 13.0178C9.06753 13.3052 9.50418 13.4444 10.0004 13.4444C10.4967 13.4444 10.9333 13.3052 11.3384 13.0178C11.7395 12.7331 12.0079 12.3707 12.1629 11.9059L12.3908 11.2222Z" fill="#1B1B1B"/>
<path fill-rule="evenodd" clip-rule="evenodd" d="M0.652224 19.3467C1.08778 19.7822 1.61111 20 2.22222 20H17.7778C18.3881 20.0007 18.9111 19.7833 19.3467 19.3478C19.7822 18.9122 20 18.3889 20 17.7778V2.22222C20.0007 1.61185 19.7833 1.08889 19.3478 0.653335C18.9122 0.21778 18.3889 1.88657e-06 17.7778 1.88657e-06H2.22222C1.61185 -0.00073888 1.08889 0.216668 0.653335 0.652224C0.21778 1.08778 1.88657e-06 1.61111 1.88657e-06 2.22222V17.7778C-0.00073888 18.3881 0.216668 18.9111 0.652224 19.3467ZM10 14.4444C10.7037 14.4444 11.3426 14.2407 11.9167 13.8333C12.4907 13.4259 12.8889 12.8889 13.1111 12.2222H17.7778V2.22222H2.22222V12.2222H6.88889C7.11111 12.8889 7.50926 13.4259 8.08333 13.8333C8.65741 14.2407 9.2963 14.4444 10 14.4444Z" fill="#1B1B1B"/>
</svg>
