<svg width="20" height="20" viewBox="0 0 20 20" fill="none" xmlns="http://www.w3.org/2000/svg">
<path d="M1.5 6L1.5 4L1 4C0.447716 4 -8.74232e-08 4.44771 -8.74231e-08 5C-8.7423e-08 5.55228 0.447715 6 1 6L1.5 6Z" fill="#1B1B1B"/>
<path d="M1.5 16L1.5 14L0.999999 14C0.447714 14 -1.74846e-07 14.4477 -1.74846e-07 15C-1.74846e-07 15.5523 0.447715 16 1 16L1.5 16Z" fill="#1B1B1B"/>
<path d="M1.5 11L1.5 9L1 9C0.447715 9 -8.74233e-08 9.44771 -8.74232e-08 10C-8.74231e-08 10.5523 0.447715 11 1 11L1.5 11Z" fill="#1B1B1B"/>
<path fill-rule="evenodd" clip-rule="evenodd" d="M3.5 14L3.5 11L3.5 17C3.5 17.5523 3.94771 18 4.5 18L17 18C17.5523 18 18 17.5523 18 17L18 3C18 2.44771 17.5523 2 17 2L4.5 2C3.94771 2 3.5 2.44772 3.5 3L3.5 4L1.5 4L1.5 3C1.5 1.34315 2.84314 -1.24278e-07 4.5 -1.96701e-07L17 -7.43094e-07C18.6569 -8.15517e-07 20 1.34314 20 3L20 17C20 18.6569 18.6569 20 17 20L4.5 20C2.84314 20 1.5 18.6569 1.5 17L1.5 16L3.5 16L3.5 14ZM3.5 9L1.5 9L1.5 11L1.5 6L3.5 6L3.5 9Z" fill="#1B1B1B"/>
<path d="M1.5 11L1.5 14L3.5 14L3.5 11L1.5 11Z" fill="#1B1B1B"/>
<path d="M6.5 5.5C6.5 5.22386 6.72386 5 7 5L14.5 5C14.7761 5 15 5.22386 15 5.5L15 9.5C15 9.77614 14.7761 10 14.5 10L7 10C6.72386 10 6.5 9.77614 6.5 9.5L6.5 5.5Z" fill="#1B1B1B"/>
<path d="M3.5 9L3.5 11L4 11C4.55228 11 5 10.5523 5 10C5 9.44771 4.55228 9 4 9L3.5 9Z" fill="#1B1B1B"/>
<path d="M1.5 9L1.5 11L3.5 11L3.5 9L1.5 9Z" fill="#1B1B1B"/>
<path d="M1.5 4L1.5 6L3.5 6L3.5 4L1.5 4Z" fill="#1B1B1B"/>
<path d="M4 6C4.55228 6 5 5.55228 5 5C5 4.44771 4.55228 4 4 4L3.5 4L3.5 6L4 6Z" fill="#1B1B1B"/>
<path d="M1.5 14L1.5 16L3.5 16L3.5 14L1.5 14Z" fill="#1B1B1B"/>
<path d="M3.5 14L3.5 16L4 16C4.55228 16 5 15.5523 5 15C5 14.4477 4.55228 14 4 14L3.5 14Z" fill="#1B1B1B"/>
</svg>
