<svg width="22" height="22" viewBox="0 0 22 22" fill="none" xmlns="http://www.w3.org/2000/svg">
<path fill-rule="evenodd" clip-rule="evenodd" d="M16 1C16 0.447715 15.5523 0 15 0C14.4477 0 14 0.447715 14 1V2H16V1Z" fill="#1B1B1B"/>
<path d="M6 2H8V1C8 0.447715 7.55228 0 7 0C6.44772 0 6 0.447715 6 1V2Z" fill="#1B1B1B"/>
<path d="M4 2C2.34315 2 1 3.34315 1 5V19C1 20.6569 2.34315 22 4 22H18C19.6569 22 21 20.6569 21 19V5C21 3.34315 19.6569 2 18 2H16V4V5C16 5.55228 15.5523 6 15 6C14.4477 6 14 5.55228 14 5V4V2H8V4V5C8 5.55228 7.55228 6 7 6C6.44772 6 6 5.55228 6 5V4V2H4Z" fill="#1B1B1B"/>
</svg>
